<svg width="24" height="24" viewBox="0 0 24 24" fill="none" xmlns="http://www.w3.org/2000/svg">
    <path fill-rule="evenodd" clip-rule="evenodd" class="Purple"
          d="M15.0615 1.60897C13.3515 0.900679 11.4489 0.807208 9.67774 1.34448C7.90659 1.88175 6.37653 3.01652 5.34826 4.55544C4.31998 6.09436 3.85712 7.94221 4.03853 9.78414C4.11726 10.5835 4.31522 11.3603 4.62105 12.0905C4.96903 12.9213 5.41848 13.7021 5.83158 14.4197L5.92971 14.5903C6.00925 14.7287 6.08722 14.8651 6.16325 15H8.43164C8.18574 14.5071 7.91932 14.0386 7.66392 13.594L7.57854 13.4455C7.15208 12.704 6.76306 12.0276 6.46579 11.3178C6.23641 10.7702 6.08795 10.1876 6.0289 9.58811C5.89284 8.20666 6.23999 6.82077 7.0112 5.66658C7.7824 4.51239 8.92995 3.66131 10.2583 3.25836C11.5867 2.85541 13.0136 2.92551 14.2961 3.45673C15.5786 3.98794 16.6372 4.9474 17.2915 6.17162C17.9459 7.39585 18.1555 8.80908 17.8847 10.1705C17.6139 11.532 16.8794 12.7574 15.8064 13.6381C14.7333 14.5187 13.3881 15 12 15V17C12.9377 17 13.8607 16.8353 14.7293 16.5201L12.8244 20.7697L12.8235 20.7717C12.4745 21.5356 11.3955 21.5549 11.0196 20.8031L9.11806 17H6.88199L9.23077 21.6976C10.3594 23.9547 13.6009 23.8947 14.6452 21.5973L14.6473 21.5926L17.8419 14.4656C18.8563 13.3814 19.5539 12.0305 19.8463 10.5607C20.2074 8.74545 19.9279 6.86113 19.0554 5.22883C18.1829 3.59653 16.7714 2.31725 15.0615 1.60897Z"
          fill="#d1d5de"/>
</svg>
