<svg xmlns="http://www.w3.org/2000/svg" width="160" height="160" viewBox="0 0 524 524">
    <defs>
        <!-- Gradients have been mathematically recalculated to work without transforms in the new coordinate system -->
        <linearGradient id="linear-gradient" x1="410.27" y1="210.57" x2="239.38" y2="514.82"
                        gradientUnits="userSpaceOnUse">
            <stop offset="0" stop-color="#ee39f1"/>
            <stop offset=".59" stop-color="#fff" stop-opacity="0"/>
        </linearGradient>
        <linearGradient id="linear-gradient-2" x1="6.75" y1="148.18" x2="329.82" y2="405.3"
                        gradientUnits="userSpaceOnUse">
            <stop offset="0" stop-color="#ff7527"/>
            <stop offset=".18" stop-color="#fff" stop-opacity="0"/>
        </linearGradient>
        <linearGradient id="linear-gradient-3" x1="294" y1="17.16" x2="294" y2="489.77" gradientUnits="userSpaceOnUse">
            <stop offset="0" stop-color="#fffdce"/>
            <stop offset=".4" stop-color="#ff6d00"/>
            <stop offset="1" stop-color="#ee39f1"/>
        </linearGradient>
    </defs>

    <!-- All paths have been shifted to the new 0,0 coordinate system and use direct, inline styles -->
    <path style="fill:none; stroke:url(#linear-gradient); stroke-linecap:round; stroke-width:2px;"
          d="M407.32,208.64L242.24,516.92"/>

    <path style="fill:none; stroke:url(#linear-gradient-2); stroke-linecap:round; stroke-width:2px;"
          d="M7.04,149.36L329.7,406.26"/>

    <path style="fill:none; stroke:url(#linear-gradient-3);"
          d="M517.3,7.08c-8.78,10.49-46.21,36.46-125.67,56.47-99.34,25.01-337.89,77.44-319.83,137.14,18.06,59.7,34.62,88.74,49.67,107.29,15.05,18.55,91.06,71.8,102.35,83.09,11.29,11.29,68.48,46.79,21.07,125.85M511.28,17.57c-14.05,29.58-47.86,93.09-70.74,110.52-28.6,21.78-158.03,57.28-206.2,81.48-48.16,24.2-91.81,43.56-82.03,55.66,9.78,12.1,127.21,89.77,136.96,100.84,12.79,14.52,21.07,30.66,6.02,61.31-15.05,30.65-27.09,44.37-33.86,61.31M517.05,7.48c-4.76,6.18-17.17,17.39-37.65,27.97-20.7,10.75-53.78,23.17-93.84,33.72-97.37,24.98-328.42,76.14-310.68,134.01,17.74,57.87,38.18,88.78,53.03,107.04,14.96,18.4,88.36,70.21,98.64,82.25,10.28,12.04,64.81,46.7,18.96,123.37M516.8,7.88c-5.13,7.12-18.4,20.42-38.98,31.27-21.02,11.19-57.95,24.53-98.33,35.63-95.4,24.95-318.96,74.84-301.54,130.87,17.42,56.04,41.74,88.82,56.38,106.8,14.88,18.24,85.67,68.63,94.93,81.42,9.26,12.78,61.13,46.6,16.85,120.88M516.54,8.29c-5.5,8.05-19.62,23.44-40.3,34.57-21.33,11.63-62.12,25.89-102.83,37.54-93.43,24.92-309.49,73.54-292.39,127.74,17.11,54.2,45.3,88.86,59.74,106.55,14.79,18.09,82.98,67.05,91.23,80.58,8.25,13.53,57.45,46.51,14.73,118.4M516.29,8.69c-5.88,8.99-20.85,26.47-41.62,37.87-21.65,12.07-66.29,27.26-107.32,39.45-91.46,24.88-300.03,72.23-283.24,124.61,16.79,52.37,48.86,88.9,63.1,106.3,14.7,17.93,80.29,65.47,87.52,79.74,7.24,14.27,53.78,46.42,12.62,115.92M516.04,9.09c-6.25,9.92-22.08,29.5-42.95,41.18-21.97,12.51-70.46,28.62-111.82,41.36-89.49,24.85-290.57,70.93-274.1,121.47,16.47,50.54,52.42,88.94,66.46,106.05,14.62,17.78,77.6,63.89,83.82,78.9,6.22,15.02,50.1,46.33,10.51,113.44M515.79,9.5c-6.62,10.86-23.31,32.53-44.27,44.48-22.28,12.95-74.63,29.99-116.31,43.27-87.53,24.82-281.1,69.63-264.95,118.34,16.15,48.71,55.99,88.98,69.81,105.8,14.53,17.62,74.91,62.3,80.12,78.07,5.21,15.76,46.43,46.23,8.39,110.95M515.54,9.9c-6.99,11.8-24.53,35.56-45.59,47.78-22.6,13.4-78.8,31.35-120.8,45.18-85.56,24.79-271.64,68.32-255.8,115.21,15.83,46.88,59.55,89.02,73.17,105.55,14.44,17.47,72.21,60.72,76.41,77.23,4.2,16.51,42.75,46.14,6.28,108.47M515.3,10.3c-7.36,12.73-25.76,38.59-46.92,51.08-22.91,13.84-82.97,32.72-125.3,47.09-83.59,24.76-262.17,67.02-246.66,112.07,15.51,45.05,63.11,89.06,76.53,105.31,14.36,17.31,69.52,59.14,72.71,76.39,3.18,17.25,39.07,46.05,4.17,105.99M515.05,10.71c-7.73,13.67-26.99,41.61-48.24,54.38-23.23,14.28-87.14,34.08-129.79,49-81.62,24.73-252.71,65.72-237.51,108.94,15.19,43.22,66.67,89.1,79.88,104.07,14.27,17.16,66.83,57.56,69,75.55,2.17,17.99,35.4,45.95,2.05,103.51M514.8,11.11c-8.11,14.6-28.22,44.64-49.56,57.69-23.55,14.72-91.31,35.45-134.29,50.91-79.65,24.7-243.24,64.41-228.37,105.8,14.88,41.39,70.23,89.14,83.24,104.81,14.18,17,64.14,55.97,65.3,74.71,1.16,18.74,31.72,45.86-.06,101.03M514.56,11.51c-8.48,15.54-29.45,47.67-50.89,60.99-23.86,15.16-95.48,36.81-138.78,52.82-77.68,24.67-233.78,63.11-219.22,102.67,14.56,39.56,73.79,89.18,86.6,104.56,14.1,16.85,61.45,54.39,61.59,73.88.14,19.49,28.05,45.77-2.17,98.54M514.31,11.92c-8.85,16.48-30.67,50.7-52.21,64.29-24.18,15.6-99.65,38.17-143.27,54.73-75.72,24.63-224.31,61.81-210.07,99.54,14.24,37.73,77.35,89.22,89.96,104.31,14.01,16.69,58.76,52.81,57.89,73.04-.87,20.23,24.37,45.67-4.28,96.06M514.07,12.32c-9.22,17.41-31.9,53.73-53.53,67.59-24.49,16.04-103.82,39.54-147.77,56.64-73.75,24.6-214.85,60.5-200.93,96.4,13.92,35.9,80.92,89.26,93.31,104.07,13.92,16.54,56.07,51.23,54.18,72.2-1.88,20.98,20.7,45.58-6.4,93.58M513.83,12.72c-9.59,18.35-33.13,56.76-54.86,70.89-24.81,16.49-107.99,40.9-152.26,58.55-71.78,24.57-205.38,59.2-191.78,93.27,13.6,34.07,84.48,89.3,96.67,103.82,13.84,16.38,53.37,49.65,50.48,71.36-2.9,21.72,17.02,45.49-8.51,91.1M513.59,13.13c-9.96,19.28-34.36,59.78-56.18,74.2-25.12,16.93-112.16,42.27-156.76,60.46-69.81,24.54-195.92,57.9-182.63,90.14,13.29,32.24,88.04,89.33,100.03,103.57,13.75,16.23,50.68,48.06,46.77,70.52-3.91,22.46,13.34,45.39-10.62,88.61M513.35,13.53c-10.33,20.22-35.58,62.81-57.5,77.5-25.44,17.37-116.33,43.63-161.25,62.37-67.84,24.51-186.46,56.59-173.49,87,12.97,30.41,91.6,89.38,103.39,103.32,13.66,16.07,47.99,46.48,43.07,69.69-4.92,23.21,9.67,45.3-12.73,86.13M513.11,13.93c-10.7,21.16-36.81,65.84-58.83,80.8-25.76,17.81-120.5,45-165.75,64.28-65.88,24.48-176.99,55.29-164.34,83.87,12.65,28.58,95.16,89.42,106.75,103.07,13.57,15.92,45.3,44.9,39.36,68.85-5.93,23.95,5.99,45.21-14.85,83.65M512.88,14.34c-11.08,22.09-38.04,68.87-60.15,84.1-26.07,18.25-124.67,46.36-170.24,66.19-63.91,24.45-167.53,53.99-155.2,80.73,12.33,26.75,98.72,89.46,110.1,102.82,13.49,15.76,42.6,43.32,35.66,68.01-6.95,24.7,2.32,45.11-16.96,81.17M512.65,14.74c-11.45,23.03-39.27,71.9-61.48,87.41-26.39,18.69-128.84,47.73-174.74,68.11-61.94,24.42-158.06,52.68-146.05,77.6,12.01,24.91,102.28,89.49,113.46,102.58,13.4,15.61,39.91,41.73,31.95,67.17-7.96,25.44-1.36,45.02-19.07,78.68M512.43,15.15c-11.82,23.96-40.49,74.93-62.8,90.71-26.7,19.13-133.01,49.09-179.23,70.02-59.97,24.39-148.6,51.38-136.9,74.47,11.69,23.08,105.85,89.53,116.82,102.33,13.31,15.45,37.22,40.15,28.25,66.34-8.97,26.19-5.04,44.93-21.19,76.2M512.21,15.55c-12.19,24.9-41.72,77.95-64.12,94.01-27.02,19.57-137.18,50.46-183.72,71.93-58,24.36-139.13,50.08-127.76,71.33,11.37,21.25,109.4,89.57,120.17,102.08,13.23,15.3,34.53,38.57,24.55,65.5-9.99,26.93-8.71,44.83-23.3,73.72M512,15.95c-12.56,25.84-42.95,80.98-65.45,97.31-27.33,20.02-141.35,51.82-188.22,73.84-56.04,24.33-129.67,48.78-118.61,68.2,11.06,19.42,112.97,89.61,123.53,101.83,13.14,15.14,31.84,36.98,20.84,64.66-11,27.68-12.39,44.74-25.41,71.24M511.79,16.36c-12.93,26.77-44.18,84.01-66.77,100.61-27.65,20.46-145.52,53.18-192.71,75.75-54.07,24.29-120.2,47.47-109.46,65.07,10.74,17.59,116.53,89.65,126.89,101.58,13.05,14.99,29.15,35.4,17.14,63.82-12.01,28.42-16.06,44.65-27.53,68.76M511.6,16.76c-13.3,27.71-45.41,87.04-68.09,103.92-27.96,20.9-149.69,54.55-197.21,77.66-52.1,24.26-110.74,46.17-100.32,61.93,10.42,15.76,120.09,89.69,130.25,101.34,12.97,14.83,26.46,33.82,13.43,62.99-13.02,29.17-19.74,44.55-29.64,66.27M511.43,17.16c-13.68,28.64-46.63,90.07-69.42,107.22-28.28,21.34-153.86,55.91-201.7,79.57-50.13,24.23-101.27,44.87-91.17,58.8,10.1,13.93,123.65,89.73,133.6,101.09,12.88,14.68,23.76,32.24,9.73,62.15-14.04,29.91-23.42,44.46-31.75,63.79"/>
</svg>