<?xml version="1.0" encoding="utf-8"?>
<svg width="400" height="400" viewBox="0 0 400 400" fill="none" xmlns="http://www.w3.org/2000/svg">
    <title>Ecliptix - Secure Teen Social Network</title>
    <desc>Enhanced professional user network visualization with diverse avatars and security features</desc>

    <defs>
        <!-- Brand Gradient: cream→orange→pink -->
        <linearGradient id="brand-gradient" x1="0%" y1="0%" x2="100%" y2="100%">
            <stop offset="0%" stop-color="#FFFDCE"/>
            <stop offset="40%" stop-color="#FF6D00"/>
            <stop offset="100%" stop-color="#EE39F1"/>
        </linearGradient>

        <!-- Orange Glow -->
        <linearGradient id="orange-glow" x1="0%" y1="0%" x2="100%" y2="100%">
            <stop offset="0%" stop-color="#FFB74D"/>
            <stop offset="100%" stop-color="#FF6D00"/>
        </linearGradient>

        <!-- Pink Glow -->
        <linearGradient id="pink-glow" x1="0%" y1="0%" x2="100%" y2="100%">
            <stop offset="0%" stop-color="#F48FB1"/>
            <stop offset="100%" stop-color="#EE39F1"/>
        </linearGradient>

        <!-- Purple Accent -->
        <linearGradient id="purple-glow" x1="0%" y1="0%" x2="100%" y2="100%">
            <stop offset="0%" stop-color="#BA68C8"/>
            <stop offset="100%" stop-color="#9C27B0"/>
        </linearGradient>

        <!-- Cyan Accent -->
        <linearGradient id="cyan-glow" x1="0%" y1="0%" x2="100%" y2="100%">
            <stop offset="0%" stop-color="#4DD0E1"/>
            <stop offset="100%" stop-color="#00ACC1"/>
        </linearGradient>

        <!-- Energy Core -->
        <radialGradient id="energy-core" cx="50%" cy="50%" r="50%">
            <stop offset="0%" stop-color="#FFFDCE" stop-opacity="0.2"/>
            <stop offset="50%" stop-color="#FF6D00" stop-opacity="0.1"/>
            <stop offset="100%" stop-color="#EE39F1" stop-opacity="0.05"/>
        </radialGradient>

        <!-- Glassmorphism Background -->
        <radialGradient id="glass-bg" cx="50%" cy="50%" r="50%">
            <stop offset="0%" stop-color="#FFFFFF" stop-opacity="0.15"/>
            <stop offset="100%" stop-color="#FFFFFF" stop-opacity="0.02"/>
        </radialGradient>

        <!-- Tech Circuit Pattern -->
        <pattern id="circuit" x="0" y="0" width="60" height="60" patternUnits="userSpaceOnUse">
            <line x1="0" y1="30" x2="60" y2="30" stroke="#FF6D00" stroke-width="0.5" opacity="0.3"/>
            <line x1="30" y1="0" x2="30" y2="60" stroke="#EE39F1" stroke-width="0.5" opacity="0.3"/>
            <circle cx="30" cy="30" r="2" fill="#FFFDCE" opacity="0.5"/>
        </pattern>

        <!-- Drop Shadow Filter -->
        <filter id="avatar-shadow" x="-50%" y="-50%" width="200%" height="200%">
            <feGaussianBlur in="SourceAlpha" stdDeviation="3"/>
            <feOffset dx="0" dy="2" result="offsetblur"/>
            <feComponentTransfer>
                <feFuncA type="linear" slope="0.3"/>
            </feComponentTransfer>
            <feMerge>
                <feMergeNode/>
                <feMergeNode in="SourceGraphic"/>
            </feMerge>
        </filter>

        <!-- Glow Filter -->
        <filter id="glow" x="-50%" y="-50%" width="200%" height="200%">
            <feGaussianBlur stdDeviation="2" result="coloredBlur"/>
            <feMerge>
                <feMergeNode in="coloredBlur"/>
                <feMergeNode in="SourceGraphic"/>
            </feMerge>
        </filter>
    </defs>

    <!-- Outer Shield Rings with Glow -->
    <circle cx="200" cy="200" r="150" stroke="url(#brand-gradient)" stroke-width="2.5"
            fill="none" opacity="0.4" stroke-dasharray="10 5" filter="url(#glow)">
        <animate attributeName="stroke-dashoffset" values="0;-30" dur="4s" repeatCount="indefinite"/>
    </circle>

    <circle cx="200" cy="200" r="130" stroke="url(#pink-glow)" stroke-width="2"
            fill="none" opacity="0.3">
        <animate attributeName="r" values="130;133;130" dur="3s" repeatCount="indefinite"/>
        <animate attributeName="opacity" values="0.3;0.5;0.3" dur="3s" repeatCount="indefinite"/>
    </circle>

    <!-- Protective Shield Hexagon -->
    <path d="M 200,60 L 270,100 L 270,180 L 200,220 L 130,180 L 130,100 Z"
          stroke="url(#cyan-glow)" stroke-width="1.5" fill="none" opacity="0.2" stroke-dasharray="5 3">
        <animate attributeName="opacity" values="0.2;0.35;0.2" dur="4s" repeatCount="indefinite"/>
    </path>

    <!-- Secure Social Network Center -->
    <g transform="translate(200, 200)">
        <!-- Connection Lines Between AI and Users (organic, chaotic) -->
        <g opacity="0.35">
            <!-- Connections to scattered users -->
            <line x1="0" y1="0" x2="-8" y2="-52" stroke="url(#brand-gradient)" stroke-width="1.5"/>
            <line x1="0" y1="0" x2="45" y2="-28" stroke="url(#brand-gradient)" stroke-width="1.5"/>
            <line x1="0" y1="0" x2="52" y2="15" stroke="url(#brand-gradient)" stroke-width="1.5"/>
            <line x1="0" y1="0" x2="18" y2="48" stroke="url(#brand-gradient)" stroke-width="1.5"/>
            <line x1="0" y1="0" x2="-42" y2="35" stroke="url(#brand-gradient)" stroke-width="1.5"/>
            <line x1="0" y1="0" x2="-48" y2="-15" stroke="url(#brand-gradient)" stroke-width="1.5"/>
        </g>

        <!-- CENTER AI ASSISTANT - Brain with neural network and tech elements -->
        <g opacity="0.98" filter="url(#avatar-shadow)">
            <!-- AI Processing Pulse Rings -->
            <circle cx="0" cy="0" r="24" fill="none" stroke="url(#cyan-glow)" stroke-width="2" opacity="0.6">
                <animate attributeName="r" values="20;28;20" dur="2.5s" repeatCount="indefinite"/>
                <animate attributeName="opacity" values="0.6;0;0.6" dur="2.5s" repeatCount="indefinite"/>
            </circle>

            <circle cx="0" cy="0" r="20" fill="none" stroke="url(#brand-gradient)" stroke-width="1.5" opacity="0.4">
                <animate attributeName="r" values="18;26;18" dur="2.5s" begin="0.3s" repeatCount="indefinite"/>
                <animate attributeName="opacity" values="0.4;0;0.4" dur="2.5s" begin="0.3s" repeatCount="indefinite"/>
            </circle>

            <!-- Outer glow -->
            <circle cx="0" cy="0" r="20" fill="url(#brand-gradient)" opacity="0.25">
                <animate attributeName="r" values="20;23;20" dur="3s" repeatCount="indefinite"/>
                <animate attributeName="opacity" values="0.25;0.4;0.25" dur="3s" repeatCount="indefinite"/>
            </circle>

            <!-- Main ring with dual gradient -->
            <circle cx="0" cy="0" r="18" stroke="url(#brand-gradient)" stroke-width="3.5" fill="none" opacity="0.9"/>
            <circle cx="0" cy="0" r="18" stroke="url(#cyan-glow)" stroke-width="1.5" fill="none" opacity="0.6"/>

            <!-- Inner depth circle (minimal) -->
            <circle cx="0" cy="0" r="15.5" fill="url(#cyan-glow)" opacity="0.08"/>

            <!-- AI Brain Icon -->
            <!-- Brain outline -->
            <path d="M -6,-8 Q -9,-8 -9,-5 Q -9,-2 -7,0 Q -7,3 -5,5 Q -3,7 0,7 Q 3,7 5,5 Q 7,3 7,0 Q 9,-2 9,-5 Q 9,-8 6,-8 Q 4,-9 0,-9 Q -4,-9 -6,-8 Z"
                  stroke="url(#brand-gradient)" stroke-width="2" fill="none" opacity="0.9"/>

            <!-- Brain filled shape -->
            <path d="M -5,-7 Q -7,-7 -7,-5 Q -7,-3 -6,-1 Q -6,2 -4,4 Q -2,5.5 0,5.5 Q 2,5.5 4,4 Q 6,2 6,-1 Q 7,-3 7,-5 Q 7,-7 5,-7 Q 3.5,-8 0,-8 Q -3.5,-8 -5,-7 Z"
                  fill="url(#brand-gradient)" opacity="0.2">
                <animate attributeName="opacity" values="0.2;0.35;0.2" dur="3s" repeatCount="indefinite"/>
            </path>

            <!-- Brain neural paths (left hemisphere) -->
            <path d="M -5,-4 Q -3,-4 -3,-2" stroke="url(#cyan-glow)" stroke-width="1" fill="none" opacity="0.7"/>
            <path d="M -5,0 Q -3,0 -3,2" stroke="url(#cyan-glow)" stroke-width="1" fill="none" opacity="0.7"/>
            <path d="M -6,-2 Q -4,-2 -2,-1" stroke="url(#orange-glow)" stroke-width="1" fill="none" opacity="0.7"/>

            <!-- Brain neural paths (right hemisphere) -->
            <path d="M 5,-4 Q 3,-4 3,-2" stroke="url(#purple-glow)" stroke-width="1" fill="none" opacity="0.7"/>
            <path d="M 5,0 Q 3,0 3,2" stroke="url(#purple-glow)" stroke-width="1" fill="none" opacity="0.7"/>
            <path d="M 6,-2 Q 4,-2 2,-1" stroke="url(#pink-glow)" stroke-width="1" fill="none" opacity="0.7"/>

            <!-- Neural connection dots -->
            <circle cx="-3" cy="-2" r="1" fill="url(#cyan-glow)">
                <animate attributeName="opacity" values="0.6;1;0.6" dur="1.5s" repeatCount="indefinite"/>
            </circle>
            <circle cx="3" cy="-2" r="1" fill="url(#purple-glow)">
                <animate attributeName="opacity" values="0.6;1;0.6" dur="1.5s" begin="0.3s" repeatCount="indefinite"/>
            </circle>
            <circle cx="-3" cy="2" r="1" fill="url(#orange-glow)">
                <animate attributeName="opacity" values="0.6;1;0.6" dur="1.5s" begin="0.6s" repeatCount="indefinite"/>
            </circle>
            <circle cx="3" cy="2" r="1" fill="url(#pink-glow)">
                <animate attributeName="opacity" values="0.6;1;0.6" dur="1.5s" begin="0.9s" repeatCount="indefinite"/>
            </circle>

            <!-- Central processing core -->
            <circle cx="0" cy="-1" r="2.5" fill="url(#brand-gradient)" opacity="0.8">
                <animate attributeName="r" values="2.5;3;2.5" dur="2s" repeatCount="indefinite"/>
            </circle>

            <!-- AI Active Status Indicator (pulsing green) -->
            <circle cx="14" cy="14" r="4.5" fill="#4CAF50" opacity="0.3">
                <animate attributeName="r" values="4.5;6;4.5" dur="2s" repeatCount="indefinite"/>
                <animate attributeName="opacity" values="0.3;0.6;0.3" dur="2s" repeatCount="indefinite"/>
            </circle>
            <circle cx="14" cy="14" r="4" fill="#4CAF50" opacity="0.95"/>
            <circle cx="14" cy="14" r="3" fill="#8BC34A"/>

            <!-- AI Badge with sparkles -->
            <circle cx="-13" cy="-13" r="8" fill="#000000" opacity="0.2"/>
            <circle cx="-13" cy="-13" r="7.5" fill="#FFFFFF"/>
            <circle cx="-13" cy="-13" r="6.5" fill="url(#brand-gradient)"/>

            <!-- AI text/icon in badge -->
            <g transform="translate(-13, -13)">
                <text x="0" y="2" text-anchor="middle" font-size="7" fill="#FFFFFF" font-weight="bold" font-family="Arial, sans-serif">AI</text>
                <!-- Sparkle animation -->
                <circle cx="3" cy="-3" r="0.8" fill="#FFFFFF" opacity="0.9">
                    <animate attributeName="opacity" values="0.3;1;0.3" dur="1.5s" repeatCount="indefinite"/>
                </circle>
                <circle cx="-3" cy="3" r="0.8" fill="#FFFFFF" opacity="0.9">
                    <animate attributeName="opacity" values="0.3;1;0.3" dur="1.5s" begin="0.5s" repeatCount="indefinite"/>
                </circle>
            </g>

            <!-- Cognitive shield overlay -->
            <path d="M 0,-13 L 6,-9 L 6,2 Q 6,6 0,9 Q -6,6 -6,2 L -6,-9 Z"
                  stroke="url(#cyan-glow)" stroke-width="1.5" fill="none" opacity="0.3" stroke-dasharray="3 2">
                <animate attributeName="opacity" values="0.3;0.5;0.3" dur="3s" repeatCount="indefinite"/>
            </path>
        </g>

        <!-- 6 DIVERSE FRIEND AVATARS - Chaotic organic circle layout -->

        <!-- Friend 1: Upper Left - Ponytail (verified) -->
        <g transform="translate(-8, -52)" opacity="0.95" filter="url(#avatar-shadow)">
            <circle cx="0" cy="0" r="15" fill="url(#pink-glow)" opacity="0.15"/>
            <circle cx="0" cy="0" r="13" stroke="url(#pink-glow)" stroke-width="2.2" fill="none"/>
            <circle cx="0" cy="0" r="11" fill="none"/>
            <!-- Head + ponytail -->
            <circle cx="0" cy="-2" r="4" fill="url(#pink-glow)" opacity="0.9"/>
            <ellipse cx="3" cy="-3" rx="2" ry="3" fill="url(#pink-glow)" opacity="0.7"/>
            <ellipse cx="0" cy="6" rx="7" ry="5.5" fill="url(#pink-glow)" opacity="0.9"/>
            <!-- Verified badge -->
            <circle cx="9" cy="-9" r="4" fill="#FFFFFF"/>
            <path d="M 7,-9 L 8.5,-7.5 L 11,-10" stroke="url(#pink-glow)" stroke-width="1" fill="none" stroke-linecap="round"/>
        </g>

        <!-- Friend 2: Upper Right - Short hair with cap -->
        <g transform="translate(45, -28)" opacity="0.92" filter="url(#avatar-shadow)">
            <circle cx="0" cy="0" r="15" fill="url(#cyan-glow)" opacity="0.15"/>
            <circle cx="0" cy="0" r="13" stroke="url(#cyan-glow)" stroke-width="2.2" fill="none"/>
            <circle cx="0" cy="0" r="11" fill="none"/>
            <!-- Head with cap -->
            <ellipse cx="0" cy="-3.5" rx="5" ry="2" fill="url(#cyan-glow)" opacity="0.8"/>
            <circle cx="0" cy="-1.5" r="3.8" fill="url(#cyan-glow)" opacity="0.9"/>
            <ellipse cx="0" cy="6" rx="7" ry="5.5" fill="url(#cyan-glow)" opacity="0.9"/>
            <!-- Online status -->
            <circle cx="9" cy="9" r="3" fill="#4CAF50"/>
        </g>

        <!-- Friend 3: Middle Right - Long curly hair -->
        <g transform="translate(52, 15)" opacity="0.90" filter="url(#avatar-shadow)">
            <circle cx="0" cy="0" r="15" fill="url(#purple-glow)" opacity="0.15"/>
            <circle cx="0" cy="0" r="13" stroke="url(#purple-glow)" stroke-width="2.2" fill="none"/>
            <circle cx="0" cy="0" r="11" fill="none"/>
            <!-- Head with curly sides -->
            <circle cx="0" cy="-2" r="4.2" fill="url(#purple-glow)" opacity="0.9"/>
            <circle cx="-3.5" cy="-1" r="2" fill="url(#purple-glow)" opacity="0.7"/>
            <circle cx="3.5" cy="-1" r="2" fill="url(#purple-glow)" opacity="0.7"/>
            <ellipse cx="0" cy="6" rx="7" ry="5.5" fill="url(#purple-glow)" opacity="0.9"/>
            <!-- Typing indicator -->
            <circle cx="-6" cy="-8" r="1.5" fill="#FFFFFF" opacity="0.8">
                <animate attributeName="opacity" values="0.3;0.9;0.3" dur="1s" repeatCount="indefinite"/>
            </circle>
            <circle cx="-3" cy="-8" r="1.5" fill="#FFFFFF" opacity="0.8">
                <animate attributeName="opacity" values="0.3;0.9;0.3" dur="1s" begin="0.2s" repeatCount="indefinite"/>
            </circle>
            <circle cx="0" cy="-8" r="1.5" fill="#FFFFFF" opacity="0.8">
                <animate attributeName="opacity" values="0.3;0.9;0.3" dur="1s" begin="0.4s" repeatCount="indefinite"/>
            </circle>
        </g>

        <!-- Friend 4: Lower Right - Bun hairstyle (verified) -->
        <g transform="translate(18, 48)" opacity="0.88" filter="url(#avatar-shadow)">
            <circle cx="0" cy="0" r="15" fill="url(#orange-glow)" opacity="0.15"/>
            <circle cx="0" cy="0" r="13" stroke="url(#orange-glow)" stroke-width="2.2" fill="none"/>
            <circle cx="0" cy="0" r="11" fill="none"/>
            <!-- Head with top bun -->
            <circle cx="0" cy="-2" r="4" fill="url(#orange-glow)" opacity="0.9"/>
            <circle cx="0" cy="-6" r="2.5" fill="url(#orange-glow)" opacity="0.75"/>
            <ellipse cx="0" cy="6" rx="7" ry="5.5" fill="url(#orange-glow)" opacity="0.9"/>
            <!-- Verified badge -->
            <circle cx="-9" cy="-9" r="4" fill="#FFFFFF"/>
            <path d="M -11,-9 L -9.5,-7.5 L -7,-10" stroke="url(#orange-glow)" stroke-width="1" fill="none" stroke-linecap="round"/>
            <!-- Online status -->
            <circle cx="9" cy="9" r="3" fill="#4CAF50"/>
        </g>

        <!-- Friend 5: Lower Left - Headphones -->
        <g transform="translate(-42, 35)" opacity="0.92" filter="url(#avatar-shadow)">
            <circle cx="0" cy="0" r="15" fill="url(#pink-glow)" opacity="0.15"/>
            <circle cx="0" cy="0" r="13" stroke="url(#pink-glow)" stroke-width="2.2" fill="none"/>
            <circle cx="0" cy="0" r="11" fill="none"/>
            <!-- Head with headphones -->
            <circle cx="0" cy="-2" r="4" fill="url(#pink-glow)" opacity="0.9"/>
            <path d="M -5,-2 Q -6,-2 -6,0 L -6,2" stroke="url(#pink-glow)" stroke-width="1.5" fill="none" stroke-linecap="round" opacity="0.8"/>
            <path d="M 5,-2 Q 6,-2 6,0 L 6,2" stroke="url(#pink-glow)" stroke-width="1.5" fill="none" stroke-linecap="round" opacity="0.8"/>
            <ellipse cx="0" cy="6" rx="7" ry="5.5" fill="url(#pink-glow)" opacity="0.9"/>
            <!-- Music note -->
            <path d="M 7,-9 L 7,-5 Q 7,-4 8,-4 Q 9,-4 9,-5 L 9,-8 L 7,-9" fill="#FFFFFF" opacity="0.7"/>
        </g>

        <!-- Friend 6: Middle Left - Side part hair -->
        <g transform="translate(-48, -15)" opacity="0.90" filter="url(#avatar-shadow)">
            <circle cx="0" cy="0" r="15" fill="url(#orange-glow)" opacity="0.15"/>
            <circle cx="0" cy="0" r="13" stroke="url(#orange-glow)" stroke-width="2.2" fill="none"/>
            <circle cx="0" cy="0" r="11" fill="none"/>
            <!-- Head with side swept hair -->
            <circle cx="0" cy="-2" r="4" fill="url(#orange-glow)" opacity="0.9"/>
            <ellipse cx="2" cy="-4" rx="3" ry="2" fill="url(#orange-glow)" opacity="0.7"/>
            <ellipse cx="0" cy="6" rx="7" ry="5.5" fill="url(#orange-glow)" opacity="0.9"/>
            <!-- Online status -->
            <circle cx="-9" cy="9" r="3" fill="#FFC107"/>
        </g>

        <!-- Enhanced Encryption Indicators with mini shields (chaotic positions) -->
        <g opacity="0.75">
            <!-- Connection to Friend 1 (upper left) -->
            <g transform="translate(-4, -26)">
                <circle cx="0" cy="0" r="4" fill="url(#cyan-glow)" opacity="0.3">
                    <animate attributeName="r" values="4;5;4" dur="2s" repeatCount="indefinite"/>
                </circle>
                <path d="M 0,-2.5 L 1.5,-1.5 L 1.5,0.5 Q 1.5,1.5 0,2 Q -1.5,1.5 -1.5,0.5 L -1.5,-1.5 Z"
                      fill="#FFFFFF" opacity="0.9">
                    <animate attributeName="opacity" values="0.7;1;0.7" dur="2s" repeatCount="indefinite"/>
                </path>
            </g>

            <!-- Connection to Friend 2 (upper right) -->
            <g transform="translate(22, -14)">
                <circle cx="0" cy="0" r="4" fill="url(#cyan-glow)" opacity="0.3">
                    <animate attributeName="r" values="4;5;4" dur="2s" begin="0.3s" repeatCount="indefinite"/>
                </circle>
                <path d="M 0,-2.5 L 1.5,-1.5 L 1.5,0.5 Q 1.5,1.5 0,2 Q -1.5,1.5 -1.5,0.5 L -1.5,-1.5 Z"
                      fill="#FFFFFF" opacity="0.9">
                    <animate attributeName="opacity" values="0.7;1;0.7" dur="2s" begin="0.3s" repeatCount="indefinite"/>
                </path>
            </g>

            <!-- Connection to Friend 3 (middle right) -->
            <g transform="translate(26, 7)">
                <circle cx="0" cy="0" r="4" fill="url(#cyan-glow)" opacity="0.3">
                    <animate attributeName="r" values="4;5;4" dur="2s" begin="0.6s" repeatCount="indefinite"/>
                </circle>
                <path d="M 0,-2.5 L 1.5,-1.5 L 1.5,0.5 Q 1.5,1.5 0,2 Q -1.5,1.5 -1.5,0.5 L -1.5,-1.5 Z"
                      fill="#FFFFFF" opacity="0.9">
                    <animate attributeName="opacity" values="0.7;1;0.7" dur="2s" begin="0.6s" repeatCount="indefinite"/>
                </path>
            </g>

            <!-- Connection to Friend 4 (lower right) -->
            <g transform="translate(9, 24)">
                <circle cx="0" cy="0" r="4" fill="url(#cyan-glow)" opacity="0.3">
                    <animate attributeName="r" values="4;5;4" dur="2s" begin="0.9s" repeatCount="indefinite"/>
                </circle>
                <path d="M 0,-2.5 L 1.5,-1.5 L 1.5,0.5 Q 1.5,1.5 0,2 Q -1.5,1.5 -1.5,0.5 L -1.5,-1.5 Z"
                      fill="#FFFFFF" opacity="0.9">
                    <animate attributeName="opacity" values="0.7;1;0.7" dur="2s" begin="0.9s" repeatCount="indefinite"/>
                </path>
            </g>

            <!-- Connection to Friend 5 (lower left) -->
            <g transform="translate(-21, 17)">
                <circle cx="0" cy="0" r="4" fill="url(#cyan-glow)" opacity="0.3">
                    <animate attributeName="r" values="4;5;4" dur="2s" begin="1.2s" repeatCount="indefinite"/>
                </circle>
                <path d="M 0,-2.5 L 1.5,-1.5 L 1.5,0.5 Q 1.5,1.5 0,2 Q -1.5,1.5 -1.5,0.5 L -1.5,-1.5 Z"
                      fill="#FFFFFF" opacity="0.9">
                    <animate attributeName="opacity" values="0.7;1;0.7" dur="2s" begin="1.2s" repeatCount="indefinite"/>
                </path>
            </g>

            <!-- Connection to Friend 6 (middle left) -->
            <g transform="translate(-24, -7)">
                <circle cx="0" cy="0" r="4" fill="url(#cyan-glow)" opacity="0.3">
                    <animate attributeName="r" values="4;5;4" dur="2s" begin="1.5s" repeatCount="indefinite"/>
                </circle>
                <path d="M 0,-2.5 L 1.5,-1.5 L 1.5,0.5 Q 1.5,1.5 0,2 Q -1.5,1.5 -1.5,0.5 L -1.5,-1.5 Z"
                      fill="#FFFFFF" opacity="0.9">
                    <animate attributeName="opacity" values="0.7;1;0.7" dur="2s" begin="1.5s" repeatCount="indefinite"/>
                </path>
            </g>
        </g>
    </g>

    <!-- Enhanced Message Bubbles with read receipts and reactions -->
    <g opacity="0.65">
        <!-- Message 1: With heart reaction -->
        <g transform="translate(240, 120)" filter="url(#avatar-shadow)">
            <ellipse cx="0" cy="0" rx="14" ry="9" fill="url(#pink-glow)" opacity="0.85"/>
            <path d="M -3,-8 L 0,-11 L 0,-8" fill="url(#pink-glow)" opacity="0.85"/>
            <!-- Message lines -->
            <line x1="-8" y1="-2" x2="4" y2="-2" stroke="#FFFFFF" stroke-width="1" opacity="0.6"/>
            <line x1="-8" y1="1" x2="6" y2="1" stroke="#FFFFFF" stroke-width="1" opacity="0.6"/>
            <!-- Read checkmarks -->
            <path d="M 6,3 L 7,4 L 9,2" stroke="#4CAF50" stroke-width="0.8" fill="none" stroke-linecap="round"/>
            <path d="M 8,3 L 9,4 L 11,2" stroke="#4CAF50" stroke-width="0.8" fill="none" stroke-linecap="round"/>
            <!-- Heart reaction -->
            <path d="M -9,7 Q -9,5 -7.5,5 Q -6.5,5 -6,6 Q -5.5,5 -4.5,5 Q -3,5 -3,7 Q -3,9 -6,10.5 Q -9,9 -9,7"
                  fill="#FF6D00" opacity="0.8">
                <animate attributeName="opacity" values="0.6;1;0.6" dur="2s" repeatCount="indefinite"/>
            </path>
            <animate attributeName="opacity" values="0.65;0.9;0.65" dur="3s" repeatCount="indefinite"/>
        </g>

        <!-- Message 2: With thumbs up -->
        <g transform="translate(280, 200)" filter="url(#avatar-shadow)">
            <ellipse cx="0" cy="0" rx="12" ry="8" fill="url(#orange-glow)" opacity="0.85"/>
            <path d="M 2,7 L 5,10 L 5,7" fill="url(#orange-glow)" opacity="0.85"/>
            <!-- Message lines -->
            <line x1="-6" y1="-1" x2="4" y2="-1" stroke="#FFFFFF" stroke-width="1" opacity="0.6"/>
            <line x1="-6" y1="2" x2="2" y2="2" stroke="#FFFFFF" stroke-width="1" opacity="0.6"/>
            <!-- Thumbs up -->
            <path d="M 5,-8 L 5,-5 L 7,-5 L 7,-3 L 9,-3 L 9,-8 L 7,-8 L 7,-9 Q 7,-10 6,-10 Q 5,-10 5,-9 Z"
                  fill="#00ACC1" opacity="0.8"/>
            <animate attributeName="opacity" values="0.65;0.9;0.65" dur="3s" begin="1s" repeatCount="indefinite"/>
        </g>

        <!-- Message 3: New message notification -->
        <g transform="translate(120, 280)" filter="url(#avatar-shadow)">
            <ellipse cx="0" cy="0" rx="13" ry="8.5" fill="url(#purple-glow)" opacity="0.85"/>
            <path d="M -3,7 L -6,10 L -6,7" fill="url(#purple-glow)" opacity="0.85"/>
            <!-- Message lines -->
            <line x1="-7" y1="-1" x2="5" y2="-1" stroke="#FFFFFF" stroke-width="1" opacity="0.6"/>
            <line x1="-7" y1="2" x2="3" y2="2" stroke="#FFFFFF" stroke-width="1" opacity="0.6"/>
            <!-- New badge -->
            <circle cx="9" cy="-6" r="4" fill="#FF6D00">
                <animate attributeName="r" values="4;4.5;4" dur="1s" repeatCount="indefinite"/>
            </circle>
            <text x="9" y="-4" text-anchor="middle" font-size="5" fill="#FFFFFF" font-weight="bold">1</text>
            <animate attributeName="opacity" values="0.65;0.9;0.65" dur="3s" begin="2s" repeatCount="indefinite"/>
        </g>
    </g>

    <!-- Digital Protection Nodes (8 outer pulsing nodes) -->
    <g opacity="0.8">
        <circle cx="200" cy="50" r="6" fill="url(#orange-glow)">
            <animate attributeName="r" values="6;8;6" dur="2s" repeatCount="indefinite"/>
        </circle>
        <circle cx="283" cy="83" r="6" fill="url(#pink-glow)">
            <animate attributeName="r" values="6;8;6" dur="2s" begin="0.25s" repeatCount="indefinite"/>
        </circle>
        <circle cx="317" cy="166" r="6" fill="url(#orange-glow)">
            <animate attributeName="r" values="6;8;6" dur="2s" begin="0.5s" repeatCount="indefinite"/>
        </circle>
        <circle cx="317" cy="234" r="6" fill="url(#pink-glow)">
            <animate attributeName="r" values="6;8;6" dur="2s" begin="0.75s" repeatCount="indefinite"/>
        </circle>
        <circle cx="283" cy="317" r="6" fill="url(#orange-glow)">
            <animate attributeName="r" values="6;8;6" dur="2s" begin="1s" repeatCount="indefinite"/>
        </circle>
        <circle cx="200" cy="350" r="6" fill="url(#pink-glow)">
            <animate attributeName="r" values="6;8;6" dur="2s" begin="1.25s" repeatCount="indefinite"/>
        </circle>
        <circle cx="117" cy="317" r="6" fill="url(#orange-glow)">
            <animate attributeName="r" values="6;8;6" dur="2s" begin="1.5s" repeatCount="indefinite"/>
        </circle>
        <circle cx="83" cy="234" r="6" fill="url(#pink-glow)">
            <animate attributeName="r" values="6;8;6" dur="2s" begin="1.75s" repeatCount="indefinite"/>
        </circle>
    </g>

    <!-- Energy Lines connecting to outer nodes -->
    <g opacity="0.2" stroke="url(#brand-gradient)" stroke-width="1" fill="none">
        <line x1="200" y1="200" x2="200" y2="50"/>
        <line x1="200" y1="200" x2="283" y2="83"/>
        <line x1="200" y1="200" x2="317" y2="166"/>
        <line x1="200" y1="200" x2="317" y2="234"/>
        <line x1="200" y1="200" x2="283" y2="317"/>
        <line x1="200" y1="200" x2="200" y2="350"/>
        <line x1="200" y1="200" x2="117" y2="317"/>
        <line x1="200" y1="200" x2="83" y2="234"/>
    </g>

    <!-- Pulsing Energy Rings around center -->
    <circle cx="200" cy="200" r="60" stroke="url(#brand-gradient)" stroke-width="1"
            fill="none" opacity="0.3">
        <animate attributeName="r" values="60;65;60" dur="4s" repeatCount="indefinite"/>
        <animate attributeName="opacity" values="0.3;0.5;0.3" dur="4s" repeatCount="indefinite"/>
    </circle>

    <circle cx="200" cy="200" r="90" stroke="url(#pink-glow)" stroke-width="1"
            fill="none" opacity="0.2">
        <animate attributeName="r" values="90;95;90" dur="5s" repeatCount="indefinite"/>
        <animate attributeName="opacity" values="0.2;0.4;0.2" dur="5s" repeatCount="indefinite"/>
    </circle>
</svg>
