<?xml version="1.0" encoding="UTF-8"?>
<svg version="1.1" xmlns="http://www.w3.org/2000/svg" width="512" height="512">
<path d="M0 0 C1.01790619 0.00215515 2.03581238 0.0043103 3.08456421 0.00653076 C17.69363523 0.05620146 32.02575853 0.30709809 46.375 3.3125 C47.34985352 3.51117676 48.32470703 3.70985352 49.32910156 3.91455078 C97.7109774 14.03517194 141.69928269 35.9516877 177.375 70.3125 C178.3640332 71.26068604 178.3640332 71.26068604 179.37304688 72.22802734 C188.86130305 81.37247479 197.6012044 90.66984009 205.375 101.3125 C206.23306152 102.46355017 207.09113451 103.61459177 207.94921875 104.765625 C213.98736829 112.95680614 219.34595521 121.47054105 224.375 130.3125 C224.73948242 130.94430176 225.10396484 131.57610352 225.47949219 132.22705078 C247.08534998 169.97532572 256.85198095 212.74189997 256.6875 255.9375 C256.68534485 256.95540619 256.6831897 257.97331238 256.68096924 259.02206421 C256.63129854 273.63113523 256.38040191 287.96325853 253.375 302.3125 C253.07698486 303.77478027 253.07698486 303.77478027 252.77294922 305.26660156 C242.65232806 353.6484774 220.7358123 397.63678269 186.375 433.3125 C185.74287598 433.97185547 185.11075195 434.63121094 184.45947266 435.31054688 C175.31502521 444.79880305 166.01765991 453.5387044 155.375 461.3125 C154.22394983 462.17056152 153.07290823 463.02863451 151.921875 463.88671875 C143.73224019 469.92427396 135.22961724 475.30707302 126.375 480.3125 C125.66778809 480.7146875 124.96057617 481.116875 124.23193359 481.53125 C101.09654164 494.5566741 75.92537591 503.30551461 49.9375 508.625 C49.21860596 508.77235596 48.49971191 508.91971191 47.7590332 509.0715332 C33.08339502 511.86090125 18.55831162 512.66142619 3.64770508 512.62817383 C0.70811513 512.6250221 -2.2304558 512.64854926 -5.16992188 512.67382812 C-18.54306192 512.71848737 -31.43916711 511.51301542 -44.625 509.3125 C-46.33055054 509.03031616 -46.33055054 509.03031616 -48.07055664 508.74243164 C-91.33802759 500.97044532 -132.38793216 480.98345309 -165.625 452.3125 C-166.37007813 451.67828125 -167.11515625 451.0440625 -167.8828125 450.390625 C-181.38779833 438.57948485 -194.05918743 425.82889772 -204.625 411.3125 C-205.48149066 410.16255169 -206.33826433 409.01281411 -207.1953125 407.86328125 C-213.23534209 399.67315742 -218.61867614 391.16870382 -223.625 382.3125 C-224.0271875 381.60528809 -224.429375 380.89807617 -224.84375 380.16943359 C-237.8691741 357.03404164 -246.61801461 331.86287591 -251.9375 305.875 C-252.08485596 305.15610596 -252.23221191 304.43721191 -252.3840332 303.6965332 C-255.35789088 288.05024391 -255.99800362 272.57681954 -255.9375 256.6875 C-255.93534485 255.66959381 -255.9331897 254.65168762 -255.93096924 253.60293579 C-255.88129854 238.99386477 -255.63040191 224.66174147 -252.625 210.3125 C-252.42632324 209.33764648 -252.22764648 208.36279297 -252.02294922 207.35839844 C-241.90232806 158.9765226 -219.9858123 114.98821731 -185.625 79.3125 C-184.99287598 78.65314453 -184.36075195 77.99378906 -183.70947266 77.31445312 C-174.56502521 67.82619695 -165.26765991 59.0862956 -154.625 51.3125 C-153.47394983 50.45443848 -152.32290823 49.59636549 -151.171875 48.73828125 C-142.98224019 42.70072604 -134.47961724 37.31792698 -125.625 32.3125 C-124.91778809 31.9103125 -124.21057617 31.508125 -123.48193359 31.09375 C-100.34654164 18.0683259 -75.17537591 9.31948539 -49.1875 4 C-48.46860596 3.85264404 -47.74971191 3.70528809 -47.0090332 3.5534668 C-31.36274391 0.57960912 -15.88931954 -0.06050362 0 0 Z " fill="#005BBA" transform="translate(255.625,-0.3125)"/>
<path d="M0 0 C168.96 0 337.92 0 512 0 C512 66.42804872 488.28170215 128.94720928 442 177 C441.36787598 177.65935547 440.73575195 178.31871094 440.08447266 178.99804688 C430.94002521 188.48630305 421.64265991 197.2262044 411 205 C409.84894983 205.85806152 408.69790823 206.71613451 407.546875 207.57421875 C399.35724019 213.61177396 390.85461724 218.99457302 382 224 C380.93918213 224.60328125 380.93918213 224.60328125 379.85693359 225.21875 C356.72154164 238.2441741 331.55037591 246.99301461 305.5625 252.3125 C304.84360596 252.45985596 304.12471191 252.60721191 303.3840332 252.7590332 C288.70839502 255.54840125 274.18331162 256.34892619 259.27270508 256.31567383 C256.33311513 256.3125221 253.3945442 256.33604926 250.45507812 256.36132812 C237.08193808 256.40598737 224.18583289 255.20051542 211 253 C209.86296631 252.81187744 208.72593262 252.62375488 207.55444336 252.42993164 C164.28697241 244.65794532 123.23706784 224.67095309 90 196 C89.25492187 195.36578125 88.50984375 194.7315625 87.7421875 194.078125 C74.23720167 182.26698485 61.56581257 169.51639772 51 155 C50.14350934 153.85005169 49.28673567 152.70031411 48.4296875 151.55078125 C42.38965791 143.36065742 37.00632386 134.85620382 32 126 C31.5978125 125.29278809 31.195625 124.58557617 30.78125 123.85693359 C16.18018945 97.9229405 6.81800319 69.33516936 2 40 C1.88285645 39.29391602 1.76571289 38.58783203 1.64501953 37.86035156 C-0.37561519 25.12404774 0 13.0611289 0 0 Z " fill="#FFDA44" transform="translate(0,256)"/>
</svg>
