<?xml version="1.0" encoding="UTF-8"?>
<svg version="1.1" xmlns="http://www.w3.org/2000/svg" width="512" height="512">
    <path d="M0 0 C0.97485352 0.19867676 1.94970703 0.39735352 2.95410156 0.60205078 C51.3359774 10.72267194 95.32428269 32.6391877 131 67 C131.9890332 67.94818604 131.9890332 67.94818604 132.99804688 68.91552734 C142.48630305 78.05997479 151.2262044 87.35734009 159 98 C159.85806152 99.15105017 160.71613451 100.30209177 161.57421875 101.453125 C167.61236829 109.64430614 172.97095521 118.15804105 178 127 C178.36448242 127.63180176 178.72896484 128.26360352 179.10449219 128.91455078 C200.71034998 166.66282572 210.47698095 209.42939997 210.3125 252.625 C210.31034485 253.64290619 210.3081897 254.66081238 210.30596924 255.70956421 C210.25629854 270.31863523 210.00540191 284.65075853 207 299 C206.70198486 300.46228027 206.70198486 300.46228027 206.39794922 301.95410156 C201.59449924 324.91711111 194.29573065 346.92072276 184 368 C183.68627441 368.65194336 183.37254883 369.30388672 183.04931641 369.97558594 C172.04895684 392.59370248 156.41583645 412.97038958 139 431 C138.40106934 431.62084473 137.80213867 432.24168945 137.18505859 432.88134766 C129.52123497 440.78250259 121.78001606 448.32766955 113 455 C112.45972168 455.41668945 111.91944336 455.83337891 111.36279297 456.26269531 C76.73445828 482.88195343 36.23392253 500.46167526 -7 507 C-8.12245117 507.17660156 -9.24490234 507.35320312 -10.40136719 507.53515625 C-22.01447743 509.1920586 -33.53179945 509.39873513 -45.25 509.375 C-46.76802216 509.37418427 -46.76802216 509.37418427 -48.31671143 509.37335205 C-64.84530572 509.33261956 -80.77913999 508.42924222 -97 505 C-98.04188477 504.78037598 -99.08376953 504.56075195 -100.15722656 504.33447266 C-147.06206495 494.10345434 -189.50710417 471.31866959 -224 438 C-224.93126709 437.101604 -224.93126709 437.101604 -225.88134766 436.18505859 C-233.78290175 428.5208478 -241.32527077 420.77871996 -248 412 C-248.40605469 411.47567383 -248.81210938 410.95134766 -249.23046875 410.41113281 C-277.50534515 373.79389423 -295.11233011 330.8722525 -301 285 C-301.08732895 284.33279434 -301.1746579 283.66558868 -301.26463318 282.97816467 C-301.96087491 277.26179524 -302.17456164 271.62257368 -302.203125 265.8671875 C-302.21371445 264.44766533 -302.21371445 264.44766533 -302.22451782 262.99946594 C-302.45241099 223.48347888 -302.45241099 223.48347888 -299 207 C-298.80132324 206.02514648 -298.60264648 205.05029297 -298.39794922 204.04589844 C-290.67672138 167.13438079 -276.33935706 132.47321638 -254 102 C-253.36795654 101.1325415 -253.36795654 101.1325415 -252.72314453 100.24755859 C-247.39912435 92.99017692 -241.66835393 86.25495567 -235.51171875 79.69921875 C-233.47639148 77.51195414 -231.53878948 75.29182197 -229.625 73 C-195.64217475 34.11657821 -141.85392361 9.31265327 -92 0 C-91.19498047 -0.16226074 -90.38996094 -0.32452148 -89.56054688 -0.49169922 C-61.56934616 -5.96455505 -27.91127604 -5.8459259 0 0 Z "
          fill="#0152B4" transform="translate(302,3)"/>
    <path d="M0 0 C168.96 0 337.92 0 512 0 C512 40.82462915 503.92337161 78.30404009 486 115 C485.52941162 115.97791504 485.52941162 115.97791504 485.04931641 116.97558594 C474.04895684 139.59370248 458.41583645 159.97038958 441 178 C440.40106934 178.62084473 439.80213867 179.24168945 439.18505859 179.88134766 C431.52123497 187.78250259 423.78001606 195.32766955 415 202 C414.45972168 202.41668945 413.91944336 202.83337891 413.36279297 203.26269531 C378.73445828 229.88195343 338.23392253 247.46167526 295 254 C293.31632324 254.26490234 293.31632324 254.26490234 291.59863281 254.53515625 C279.98552257 256.1920586 268.46820055 256.39873513 256.75 256.375 C255.23197784 256.37418427 255.23197784 256.37418427 253.68328857 256.37335205 C237.15469428 256.33261956 221.22086001 255.42924222 205 252 C203.95811523 251.78037598 202.91623047 251.56075195 201.84277344 251.33447266 C154.93793505 241.10345434 112.49289583 218.31866959 78 185 C77.06873291 184.101604 77.06873291 184.101604 76.11865234 183.18505859 C68.21709825 175.5208478 60.67472923 167.77871996 54 159 C53.59394531 158.47567383 53.18789063 157.95134766 52.76953125 157.41113281 C17.32949057 111.51468373 0 57.72028511 0 0 Z "
          fill="#F0F0F0" transform="translate(0,256)"/>
    <path d="M0 0 C168.96 0 337.92 0 512 0 C512 26.64906417 512 26.64906417 510.8125 34.625 C510.66071289 35.85089844 510.66071289 35.85089844 510.50585938 37.1015625 C509.10583857 47.27252443 506.39450595 56.943075 504 67 C340.32 67.33 176.64 67.66 8 68 C2.15101028 42.26444523 2.15101028 42.26444523 1.1875 34.5625 C1.06697266 33.75748047 0.94644531 32.95246094 0.82226562 32.12304688 C-0.58065034 21.37270223 0 10.99254133 0 0 Z "
          fill="#EFEFEF" transform="translate(0,256)"/>
    <path d="M0 0 C163.35 0 326.7 0 495 0 C488.00133171 23.32889429 488.00133171 23.32889429 484.25 32.0625 C483.83097412 33.0534668 483.41194824 34.04443359 482.98022461 35.06542969 C478.87459546 44.60118304 474.38199581 54.1068642 469 63 C468.44582745 64.02987468 468.44582745 64.02987468 467.88045949 65.0805549 C465.60246526 67.40577641 464.09712731 67.48703594 460.91138706 67.5490863 C460.21885157 67.54229427 459.52631609 67.53550223 458.81279469 67.52850437 C458.07222225 67.5370145 457.33164982 67.54552463 456.56863579 67.55429265 C454.06713359 67.57806424 451.5664951 67.5731556 449.06489563 67.5684967 C447.26133443 67.5795423 445.45778307 67.59230627 443.65424508 67.60664839 C438.68253971 67.64094427 433.71105571 67.64996895 428.73924601 67.6548301 C423.38319898 67.66427177 418.02728082 67.69648795 412.67131042 67.72544861 C399.72917291 67.79027065 386.78705795 67.81681413 373.84479097 67.84036294 C367.75357182 67.85247116 361.66236601 67.86920971 355.57115746 67.88570976 C335.32871465 67.93930675 315.08628719 67.98469803 294.84377766 68.00208378 C293.54758179 68.0032136 292.25138592 68.00434343 290.91591139 68.0055075 C289.61657214 68.00663607 288.3172329 68.00776464 286.97851974 68.0089274 C284.34546171 68.01122635 281.7124037 68.01354029 279.0793457 68.01586914 C277.77325142 68.01701717 276.46715714 68.0181652 275.12148424 68.01934802 C253.95537715 68.03949685 232.78990081 68.11720159 211.62404714 68.21952838 C189.90505358 68.32368102 168.18637796 68.37913432 146.46713132 68.38583177 C134.26771046 68.39075148 122.06913997 68.41683999 109.86995888 68.49675179 C99.48203681 68.56458419 89.09521005 68.58811898 78.70710287 68.5535707 C73.40513345 68.53727781 68.10538713 68.54212212 62.80369949 68.60350418 C57.94968178 68.65919887 53.09954943 68.65491876 48.24552574 68.60283475 C46.48972464 68.59455974 44.73365374 68.60828718 42.97824243 68.64619649 C37.70375924 68.75294114 33.0360646 68.67503341 28 67 C24.14078454 63.05401249 22.1632199 59.09132938 20 54 C19.12768056 52.33231862 18.2462739 50.66928419 17.34765625 49.015625 C16.5747148 47.43251364 15.81312795 45.84381234 15.0625 44.25 C14.65136963 43.38093018 14.24023926 42.51186035 13.81665039 41.61645508 C10.50361289 34.43641336 7.64291505 27.11576079 4.9375 19.6875 C4.3643103 18.12273926 4.3643103 18.12273926 3.77954102 16.52636719 C3.42819092 15.5315332 3.07684082 14.53669922 2.71484375 13.51171875 C2.40667725 12.63990967 2.09851074 11.76810059 1.78100586 10.86987305 C0.81688106 7.32711373 0.4554065 3.643252 0 0 Z "
          fill="#D80128" transform="translate(9,323)"/>
    <path d="M0 0 C81.84 0 163.68 0 248 0 C253.84189123 24.53594315 253.84189123 24.53594315 254.8125 32.375 C254.93302734 33.18453125 255.05355469 33.9940625 255.17773438 34.828125 C256.57559959 45.59568103 256 55.99152322 256 67 C171.52 67 87.04 67 0 67 C0 44.89 0 22.78 0 0 Z "
          fill="#D80127" transform="translate(256,189)"/>
    <path d="M0 0 C16.67226386 15.63136581 24.69668564 47.01822799 31 68 C31 68.33 31 68.66 31 69 C-50.84 69 -132.68 69 -217 69 C-217 46.89 -217 24.78 -217 2 C-145.39 2 -73.78 2 0 2 C0 1.34 0 0.68 0 0 Z "
          fill="#EFEEEF" transform="translate(473,120)"/>
    <path d="M0 0 C20.63692394 -0.24876339 41.27262528 -0.4511986 61.91067028 -0.56993389 C71.49429874 -0.62654175 81.07692632 -0.70364984 90.65991211 -0.82983398 C99.01714078 -0.93982505 107.37364432 -1.01052222 115.73157674 -1.03497344 C120.15335215 -1.04925706 124.57305409 -1.08257281 128.99416161 -1.16303062 C133.1653273 -1.23831695 137.33358854 -1.26060871 141.50536919 -1.24418449 C143.02716173 -1.24718382 144.54906247 -1.26870725 146.07026291 -1.31126022 C155.67401219 -1.56648146 161.69512432 0.17352096 168.72009677 6.69562751 C169.69023024 7.64397799 170.65045746 8.60258268 171.59982932 9.57171667 C173.0147203 11.01501586 174.46798754 12.40497838 175.94185162 13.78781605 C178.55403486 16.24876839 181.09553865 18.7667211 183.625 21.3125 C184.98492065 22.67870483 184.98492065 22.67870483 186.37231445 24.07250977 C193.18141546 30.99661491 199.35398028 38.10928742 205 46 C205.93476946 47.28655017 206.86966959 48.57300539 207.8046875 49.859375 C217 62.58481618 217 62.58481618 217 67 C145.39 67 73.78 67 0 67 C0 44.89 0 22.78 0 0 Z "
          fill="#D80228" transform="translate(256,55)"/>
    <path d="M0 0 C104.94 0 209.88 0 318 0 C316.90466726 3.28599821 316.41807102 3.69907894 313.7109375 5.6015625 C313.02467285 6.08705566 312.3384082 6.57254883 311.63134766 7.07275391 C310.88675293 7.58499512 310.1421582 8.09723633 309.375 8.625 C308.60591309 9.15915527 307.83682617 9.69331055 307.04443359 10.24365234 C299.88219471 15.16833646 292.5731949 19.73753187 285 24 C284.29713867 24.39928711 283.59427734 24.79857422 282.87011719 25.20996094 C256.66281671 39.96668705 227.72002573 49.5054002 198 54 C196.87754883 54.17660156 195.75509766 54.35320312 194.59863281 54.53515625 C182.98552257 56.1920586 171.46820055 56.39873513 159.75 56.375 C158.23197784 56.37418427 158.23197784 56.37418427 156.68328857 56.37335205 C140.15469428 56.33261956 124.22086001 55.42924222 108 52 C106.95811523 51.78037598 105.91623047 51.56075195 104.84277344 51.33447266 C69.76696778 43.683637 37.07194046 29.04487407 8 8 C7.08734375 7.35546875 6.1746875 6.7109375 5.234375 6.046875 C3.44481824 4.75789356 1.71167655 3.39073719 0 2 C0 1.34 0 0.68 0 0 Z "
          fill="#D8042A" transform="translate(97,456)"/>
    <path d="M0 0 C54.87747538 0 106.45081268 15.63097764 151 48 C151.91265625 48.65613281 152.8253125 49.31226563 153.765625 49.98828125 C155.53903202 51.2873329 157.27643478 52.63551087 159 54 C159 54.33 159 54.66 159 55 C106.53 55 54.06 55 0 55 C0 36.85 0 18.7 0 0 Z "
          fill="#F0F0F0" transform="translate(256,0)"/>
    <path d="M0 0 C2 1 2 1 2.96484375 3.5546875 C3.28582031 4.65039062 3.60679687 5.74609375 3.9375 6.875 C4.25589844 7.94492188 4.57429688 9.01484375 4.90234375 10.1171875 C6.30210951 15.06867209 7.64611984 20.03577273 9 25 C17.58 25 26.16 25 35 25 C29.375 30.625 29.375 30.625 26.44921875 32.67578125 C25.83369141 33.11083984 25.21816406 33.54589844 24.58398438 33.99414062 C23.64522461 34.64672852 23.64522461 34.64672852 22.6875 35.3125 C22.04232422 35.76689453 21.39714844 36.22128906 20.73242188 36.68945312 C19.15802858 37.79735952 17.57944354 38.89930525 16 40 C16.68928713 46.12343454 18.36576282 51.57945759 20.359375 57.390625 C22.10455357 62.68633929 22.10455357 62.68633929 21 66 C20.47043701 65.61142822 19.94087402 65.22285645 19.39526367 64.82250977 C16.99558242 63.06516345 14.59161209 61.31377921 12.1875 59.5625 C11.35412109 58.95083984 10.52074219 58.33917969 9.66210938 57.70898438 C8.85966797 57.12568359 8.05722656 56.54238281 7.23046875 55.94140625 C6.49207764 55.40201416 5.75368652 54.86262207 4.99291992 54.30688477 C2.93608398 52.83658852 2.93608398 52.83658852 0 52 C-2.41886523 53.48281788 -4.61845642 54.98688244 -6.875 56.6875 C-7.48730469 57.13544922 -8.09960938 57.58339844 -8.73046875 58.04492188 C-11.49134918 60.07567654 -14.17792333 62.14711943 -16.8203125 64.33203125 C-19 66 -19 66 -21 66 C-18.74603165 57.185701 -15.9375631 48.60369272 -13 40 C-13.57524414 39.72744385 -14.15048828 39.4548877 -14.74316406 39.17407227 C-18.65710346 37.13792616 -22.15629329 34.48527714 -25.75 31.9375 C-26.54277344 31.38255859 -27.33554688 30.82761719 -28.15234375 30.25585938 C-28.90128906 29.72669922 -29.65023437 29.19753906 -30.421875 28.65234375 C-31.10862305 28.16757568 -31.79537109 27.68280762 -32.50292969 27.18334961 C-32.99696289 26.79284424 -33.49099609 26.40233887 -34 26 C-34 25.67 -34 25.34 -34 25 C-25.09 25 -16.18 25 -7 25 C-6.34 21.7 -5.68 18.4 -5 15 C-4.16982816 12.25791727 -3.321964 9.57274628 -2.375 6.875 C-2.14554688 6.2046875 -1.91609375 5.534375 -1.6796875 4.84375 C-1.12544743 3.22721648 -0.56357985 1.6133011 0 0 Z "
          fill="#E8EBEE" transform="translate(198,164)"/>
    <path d="M0 0 C2.2534872 2.2534872 2.73648451 3.71974454 3.7265625 6.71875 C4.0359375 7.65074219 4.3453125 8.58273438 4.6640625 9.54296875 C4.98117188 10.51878906 5.29828125 11.49460938 5.625 12.5 C6.11226562 13.96373047 6.11226562 13.96373047 6.609375 15.45703125 C9 22.71930804 9 22.71930804 9 25 C17.58 25 26.16 25 35 25 C29.375 30.625 29.375 30.625 26.44921875 32.67578125 C25.83369141 33.11083984 25.21816406 33.54589844 24.58398438 33.99414062 C23.64522461 34.64672852 23.64522461 34.64672852 22.6875 35.3125 C22.04232422 35.76689453 21.39714844 36.22128906 20.73242188 36.68945312 C19.15802858 37.79735952 17.57944354 38.89930525 16 40 C16.68928713 46.12343454 18.36576282 51.57945759 20.359375 57.390625 C22.10455357 62.68633929 22.10455357 62.68633929 21 66 C20.54149658 65.64695801 20.08299316 65.29391602 19.6105957 64.93017578 C17.51573272 63.32248409 15.41422874 61.72370402 13.3125 60.125 C12.59126953 59.56941406 11.87003906 59.01382813 11.12695312 58.44140625 C9.11334417 56.91510905 7.07127822 55.44669244 5 54 C4.18015625 53.42507812 3.3603125 52.85015625 2.515625 52.2578125 C-2.00780429 51.79423124 -5.11866114 55.08952363 -8.5625 57.75 C-10.0622206 58.87190884 -11.56347217 59.99177468 -13.06640625 61.109375 C-13.72584229 61.61436523 -14.38527832 62.11935547 -15.06469727 62.63964844 C-16.97524402 63.98259867 -18.88702696 65.01306367 -21 66 C-18.74603165 57.185701 -15.9375631 48.60369272 -13 40 C-13.57524414 39.72744385 -14.15048828 39.4548877 -14.74316406 39.17407227 C-18.65710346 37.13792616 -22.15629329 34.48527714 -25.75 31.9375 C-26.54277344 31.38255859 -27.33554688 30.82761719 -28.15234375 30.25585938 C-28.90128906 29.72669922 -29.65023437 29.19753906 -30.421875 28.65234375 C-31.10862305 28.16757568 -31.79537109 27.68280762 -32.50292969 27.18334961 C-32.99696289 26.79284424 -33.49099609 26.40233887 -34 26 C-34 25.67 -34 25.34 -34 25 C-25.09 25 -16.18 25 -7 25 C-6.67 22.69 -6.34 20.38 -6 18 C-5.57806353 16.44576655 -5.11244849 14.90224347 -4.58984375 13.37890625 C-4.32236328 12.58935547 -4.05488281 11.79980469 -3.77929688 10.98632812 C-3.36260742 9.7865332 -3.36260742 9.7865332 -2.9375 8.5625 C-2.65583984 7.73556641 -2.37417969 6.90863281 -2.08398438 6.05664062 C-1.39482208 4.03587662 -0.6981769 2.01766718 0 0 Z "
          fill="#E9EBEE" transform="translate(106,164)"/>
    <path d="M0 0 C2 1 2 1 3.21875 4.31640625 C3.65371309 5.72936916 4.08043763 7.14488775 4.5 8.5625 C4.71269531 9.25408203 4.92539063 9.94566406 5.14453125 10.65820312 C6.59003902 15.41596337 7.79008496 20.16033983 9 25 C17.58 25 26.16 25 35 25 C29.375 30.625 29.375 30.625 26.44921875 32.67578125 C25.83369141 33.11083984 25.21816406 33.54589844 24.58398438 33.99414062 C23.64522461 34.64672852 23.64522461 34.64672852 22.6875 35.3125 C22.04232422 35.76689453 21.39714844 36.22128906 20.73242188 36.68945312 C19.15802858 37.79735952 17.57944354 38.89930525 16 40 C16.68928713 46.12343454 18.36576282 51.57945759 20.359375 57.390625 C22.10455357 62.68633929 22.10455357 62.68633929 21 66 C20.45061768 65.5654248 19.90123535 65.13084961 19.33520508 64.68310547 C16.84196667 62.72794392 14.32794659 60.80149082 11.8125 58.875 C10.51602539 57.84826172 10.51602539 57.84826172 9.19335938 56.80078125 C8.35224609 56.16269531 7.51113281 55.52460937 6.64453125 54.8671875 C5.87471924 54.27019043 5.10490723 53.67319336 4.31176758 53.05810547 C2.00993531 51.71116488 2.00993531 51.71116488 -0.55908203 52.65820312 C-2.74983414 53.86248134 -4.71519078 55.08581611 -6.69921875 56.6015625 C-7.67665039 57.33632812 -7.67665039 57.33632812 -8.67382812 58.0859375 C-9.33833984 58.59382813 -10.00285156 59.10171875 -10.6875 59.625 C-12.02146781 60.64232531 -13.35856196 61.65556844 -14.69921875 62.6640625 C-15.28533936 63.11217285 -15.87145996 63.5602832 -16.4753418 64.02197266 C-18 65 -18 65 -20 65 C-19.41160201 59.77881324 -18.20372065 55.18750198 -16.4375 50.25 C-14.60195922 45.25639697 -14.60195922 45.25639697 -14 40 C-15.7684282 38.39406415 -15.7684282 38.39406415 -18.12109375 36.93359375 C-18.97380859 36.36576172 -19.82652344 35.79792969 -20.70507812 35.21289062 C-21.60677734 34.62701172 -22.50847656 34.04113281 -23.4375 33.4375 C-25.20962461 32.27346984 -26.97929016 31.10568458 -28.74609375 29.93359375 C-29.53685303 29.41853271 -30.3276123 28.90347168 -31.14233398 28.37280273 C-33 27 -33 27 -34 25 C-25.09 25 -16.18 25 -7 25 C-6.67 22.69 -6.34 20.38 -6 18 C-5.57806353 16.44576655 -5.11244849 14.90224347 -4.58984375 13.37890625 C-4.32236328 12.58935547 -4.05488281 11.79980469 -3.77929688 10.98632812 C-3.36260742 9.7865332 -3.36260742 9.7865332 -2.9375 8.5625 C-2.65583984 7.73556641 -2.37417969 6.90863281 -2.08398438 6.05664062 C-1.39482208 4.03587662 -0.6981769 2.01766718 0 0 Z "
          fill="#E9EBEE" transform="translate(198,15)"/>
    <path d="M0 0 C2 1 2 1 2.76196289 2.77832031 C2.9964917 3.53725586 3.23102051 4.29619141 3.47265625 5.078125 C3.73240234 5.90957031 3.99214844 6.74101563 4.25976562 7.59765625 C4.52466797 8.47292969 4.78957031 9.34820312 5.0625 10.25 C5.33126953 11.10980469 5.60003906 11.96960938 5.87695312 12.85546875 C7.13102768 16.91479238 8.16362858 20.8181429 9 25 C17.58 25 26.16 25 35 25 C32.26707102 27.73292898 30.19759437 29.70485543 27.109375 31.796875 C26.40039062 32.28027344 25.69140625 32.76367188 24.9609375 33.26171875 C24.23132813 33.75285156 23.50171875 34.24398437 22.75 34.75 C22.00492188 35.25660156 21.25984375 35.76320312 20.4921875 36.28515625 C18.66405689 37.52734756 16.833313 38.76547582 15 40 C15.2172876 40.65073486 15.4345752 41.30146973 15.65844727 41.97192383 C16.63571223 44.91580642 17.59923993 47.86400678 18.5625 50.8125 C18.90474609 51.83666016 19.24699219 52.86082031 19.59960938 53.91601562 C19.91865234 54.89892578 20.23769531 55.88183594 20.56640625 56.89453125 C21.01415405 58.25348511 21.01415405 58.25348511 21.47094727 59.63989258 C22 62 22 62 21 65 C20.44538086 64.60095459 19.89076172 64.20190918 19.31933594 63.79077148 C16.80539121 61.99310649 14.27807813 60.21522693 11.75 58.4375 C10.44095703 57.49487305 10.44095703 57.49487305 9.10546875 56.53320312 C7.83896484 55.64858398 7.83896484 55.64858398 6.546875 54.74609375 C5.77182617 54.19622803 4.99677734 53.6463623 4.19824219 53.07983398 C2.10204615 51.81811009 2.10204615 51.81811009 -0.03173828 52.16040039 C-2.26886569 53.11468979 -4.06797945 54.26079349 -6.0390625 55.6875 C-6.78414062 56.22117188 -7.52921875 56.75484375 -8.296875 57.3046875 C-9.06515625 57.86414063 -9.8334375 58.42359375 -10.625 59 C-12.15807885 60.1052429 -13.691898 61.20945989 -15.2265625 62.3125 C-15.90283691 62.80363281 -16.57911133 63.29476562 -17.27587891 63.80078125 C-19 65 -19 65 -21 66 C-19.28258335 58.66194706 -17.26662378 51.5752453 -14.671875 44.49609375 C-13.72677236 41.89978257 -13.72677236 41.89978257 -15 39 C-16.68324555 37.5161481 -16.68324555 37.5161481 -18.78125 36.15234375 C-19.54050781 35.62962891 -20.29976562 35.10691406 -21.08203125 34.56835938 C-21.87996094 34.03017578 -22.67789063 33.49199219 -23.5 32.9375 C-25.0755722 31.86717995 -26.64862482 30.79313855 -28.21875 29.71484375 C-28.91935547 29.24167725 -29.61996094 28.76851074 -30.34179688 28.28100586 C-32 27 -32 27 -33 25 C-24.42 25 -15.84 25 -7 25 C-6.67 22.69 -6.34 20.38 -6 18 C-5.57806353 16.44576655 -5.11244849 14.90224347 -4.58984375 13.37890625 C-4.32236328 12.58935547 -4.05488281 11.79980469 -3.77929688 10.98632812 C-3.36260742 9.7865332 -3.36260742 9.7865332 -2.9375 8.5625 C-2.65583984 7.73556641 -2.37417969 6.90863281 -2.08398438 6.05664062 C-1.39482208 4.03587662 -0.6981769 2.01766718 0 0 Z "
          fill="#EAECEE" transform="translate(198,90)"/>
    <path d="M0 0 C2 1 2 1 2.86962891 2.99365234 C3.15241699 3.84910645 3.43520508 4.70456055 3.7265625 5.5859375 C4.0359375 6.51664062 4.3453125 7.44734375 4.6640625 8.40625 C5.13972656 9.87578125 5.13972656 9.87578125 5.625 11.375 C5.94984375 12.34695312 6.2746875 13.31890625 6.609375 14.3203125 C9 21.59263393 9 21.59263393 9 25 C17.58 25 26.16 25 35 25 C30.51920587 29.48079413 30.51920587 29.48079413 27.58203125 31.4375 C26.96779297 31.85773438 26.35355469 32.27796875 25.72070312 32.7109375 C24.44050951 33.57575611 23.15658677 34.43507812 21.86914062 35.2890625 C18.38254633 37.54430279 18.38254633 37.54430279 16.26708984 40.9699707 C15.86666538 44.0134162 16.83588884 46.2990776 17.8125 49.1875 C19.52446346 54.43594161 20.90026491 59.59296915 22 65 C16.06378314 61.89697755 11.03756951 57.95406652 5.8671875 53.73046875 C3.20889978 51.73923986 3.20889978 51.73923986 0.5793457 52.22387695 C-2.12378959 53.03724819 -3.86443898 54.02998923 -6.13671875 55.6875 C-6.87857422 56.22117188 -7.62042969 56.75484375 -8.38476562 57.3046875 C-9.14466797 57.86414063 -9.90457031 58.42359375 -10.6875 59 C-12.21153062 60.10514501 -13.73623797 61.20935757 -15.26171875 62.3125 C-16.26658325 63.04919922 -16.26658325 63.04919922 -17.29174805 63.80078125 C-19 65 -19 65 -21 66 C-19.10538155 58.83776815 -17.00484015 51.78270653 -14.671875 44.75 C-13.72571144 41.93561525 -13.72571144 41.93561525 -15 39 C-17.24076625 37.26362357 -19.46921214 35.64745752 -21.8125 34.0625 C-23.07155793 33.20293844 -24.32813314 32.33972745 -25.58203125 31.47265625 C-26.14124268 31.09375244 -26.7004541 30.71484863 -27.27661133 30.32446289 C-29.34265919 28.73665872 -31.1574914 26.8425086 -33 25 C-24.42 25 -15.84 25 -7 25 C-6.67 22.69 -6.34 20.38 -6 18 C-5.57806353 16.44576655 -5.11244849 14.90224347 -4.58984375 13.37890625 C-4.32236328 12.58935547 -4.05488281 11.79980469 -3.77929688 10.98632812 C-3.36260742 9.7865332 -3.36260742 9.7865332 -2.9375 8.5625 C-2.65583984 7.73556641 -2.37417969 6.90863281 -2.08398438 6.05664062 C-1.39482208 4.03587662 -0.6981769 2.01766718 0 0 Z "
          fill="#EAECEE" transform="translate(106,90)"/>
    <path d="M0 0 C2 1 2 1 3 3.66015625 C3.33 4.78292969 3.66 5.90570313 4 7.0625 C4.33 8.16722656 4.66 9.27195313 5 10.41015625 C6.07086581 14.25439719 7.0321357 18.12854282 8 22 C16.58 22 25.16 22 34 22 C28.375 27.625 28.375 27.625 25.44921875 29.67578125 C24.83369141 30.11083984 24.21816406 30.54589844 23.58398438 30.99414062 C22.64522461 31.64672852 22.64522461 31.64672852 21.6875 32.3125 C21.04232422 32.76689453 20.39714844 33.22128906 19.73242188 33.68945312 C18.15802858 34.79735952 16.57944354 35.89930525 15 37 C15.58839799 42.22118676 16.79627935 46.81249802 18.5625 51.75 C21 58.61260331 21 58.61260331 21 62 C15.30584353 60.20415065 11.07974455 56.35977128 6.52734375 52.63671875 C4.72406121 51.24145165 3.04611261 50.0069326 1 49 C-1.74683245 49.31115896 -1.74683245 49.31115896 -4 51 C-4.81082031 51.49757812 -5.62164063 51.99515625 -6.45703125 52.5078125 C-7.23433594 53.04148438 -8.01164063 53.57515625 -8.8125 54.125 C-9.60269531 54.66382813 -10.39289062 55.20265625 -11.20703125 55.7578125 C-11.79871094 56.16773438 -12.39039063 56.57765625 -13 57 C-13.25805015 50.37671287 -12.32097423 44.40603411 -10.9375 37.9375 C-10.61120605 36.38748291 -10.61120605 36.38748291 -10.27832031 34.80615234 C-4.75323403 9.50646805 -4.75323403 9.50646805 0 0 Z "
          fill="#ECEDEF" transform="translate(15,167)"/>
    <path d="M0 0 C1.10859375 0.02255859 2.2171875 0.04511719 3.359375 0.06835938 C6.07434753 0.12687171 8.7864413 0.20879509 11.5 0.3125 C7.74634493 4.28064965 3.7707518 7.48046503 -0.6875 10.625 C-1.31591797 11.07939453 -1.94433594 11.53378906 -2.59179688 12.00195312 C-7.24647556 15.3125 -7.24647556 15.3125 -9.5 15.3125 C-9.09007812 16.36308594 -8.68015625 17.41367187 -8.2578125 18.49609375 C-5.478238 25.70684909 -2.86372226 32.67565535 -1.5 40.3125 C-6.72690056 38.60595597 -10.52067558 35.3007637 -14.68359375 31.85742188 C-19.09698683 28.16492482 -19.09698683 28.16492482 -24.5 27.3125 C-27.4408719 28.98479877 -30.00613053 31.05519644 -32.625 33.1875 C-34.04166925 34.31317773 -35.4608408 35.43571538 -36.8828125 36.5546875 C-37.50559082 37.0585498 -38.12836914 37.56241211 -38.77001953 38.08154297 C-40.5 39.3125 -40.5 39.3125 -43.5 40.3125 C-41.98392807 28.91280531 -40.72025466 20.24030465 -31.4609375 12.86767578 C-28.56546943 10.72779055 -25.65215838 8.6502483 -22.62451172 6.70092773 C-20.5009302 5.35418298 -20.5009302 5.35418298 -18.61376953 3.84790039 C-12.68681701 -0.52286061 -7.16467023 -0.27853084 0 0 Z "
          fill="#EBECEE" transform="translate(129.5,39.6875)"/>
    <path d="M0 0 C1 2 1 2 1.375 5.5 C1.84767025 9.80917715 3.07641029 13.70951081 4.4765625 17.80078125 C5 20 5 20 4 23 C0.37 20.36 -3.26 17.72 -7 15 C-5.60854034 10.82562101 -4.49553763 7.80803904 -2.375 4.125 C-1.92898437 3.34382812 -1.48296875 2.56265625 -1.0234375 1.7578125 C-0.68570312 1.17773438 -0.34796875 0.59765625 0 0 Z "
          fill="#DDE3EB" transform="translate(31,132)"/>
    <path d="M0 0 C0.33 0.66 0.66 1.32 1 2 C0.52111328 2.40742432 0.04222656 2.81484863 -0.45117188 3.23461914 C-5.69838088 7.75481287 -10.63355982 12.5124823 -15.5 17.4375 C-16.22703125 18.16904297 -16.9540625 18.90058594 -17.703125 19.65429688 C-19.47109499 21.43389824 -21.23666378 23.21580918 -23 25 C-23.66 24.67 -24.32 24.34 -25 24 C-8.52123552 5.68082368 -8.52123552 5.68082368 0 0 Z "
          fill="#1760BB" transform="translate(91,59)"/>
    <path d="M0 0 C0.33 0.66 0.66 1.32 1 2 C3.52733235 2.65555119 3.52733235 2.65555119 6 3 C2.29909479 6.9252025 -1.54959656 9.94580156 -6 13 C-6.66 12.67 -7.32 12.34 -8 12 C-5.36 8.04 -2.72 4.08 0 0 Z "
          fill="#CBD8E6" transform="translate(44,111)"/>
    <path d="M0 0 C0.66 0.33 1.32 0.66 2 1 C0.515 2.485 0.515 2.485 -1 4 C4.61 4.33 10.22 4.66 16 5 C15.67 5.66 15.34 6.32 15 7 C3.615 6.505 3.615 6.505 -8 6 C-5.39710397 3.91768317 -2.77350098 1.84900065 0 0 Z "
          fill="#2067BC" transform="translate(126,34)"/>
    <path d="M0 0 C0.66 0.33 1.32 0.66 2 1 C-2.296875 5.00390625 -2.296875 5.00390625 -4 6 C-6.203125 5.65234375 -6.203125 5.65234375 -8 5 C-6.71475739 4.13619741 -5.42157581 3.28419631 -4.125 2.4375 C-3.04605469 1.72400391 -3.04605469 1.72400391 -1.9453125 0.99609375 C-1.30335937 0.66738281 -0.66140625 0.33867188 0 0 Z "
          fill="#4B83C6" transform="translate(126,34)"/>
</svg>
